{
  "asset": {
    "generator": "Khronos glTF Blender I/O v3.5.30",
    "version": "2.0"
  },
  "scene": 0,
  "scenes": [
    {
      "name": "Scene",
      "nodes": [
        0
      ]
    }
  ],
  "nodes": [
    {
      "mesh": 0,
      "name": "coastal_cliff_04"
    }
  ],
  "materials": [
    {
      "doubleSided": true,
      "name": "coastal_cliff_04",
      "normalTexture": {
        "index": 0
      },
      "pbrMetallicRoughness": {
        "baseColorTexture": {
          "index": 1
        },
        "metallicFactor": 0,
        "metallicRoughnessTexture": {
          "index": 2
        }
      }
    }
  ],
  "meshes": [
    {
      "name": "Plane.002",
      "primitives": [
        {
          "attributes": {
            "POSITION": 0,
            "TEXCOORD_0": 1,
            "NORMAL": 2
          },
          "indices": 3,
          "material": 0
        }
      ]
    }
  ],
  "textures": [
    {
      "sampler": 0,
      "source": 0
    },
    {
      "sampler": 0,
      "source": 1
    },
    {
      "sampler": 0,
      "source": 2
    }
  ],
  "images": [
    {
      "mimeType": "image/jpeg",
      "name": "coastal_cliff_04_nor_gl",
      "uri": "textures/coastal_cliff_04_nor_gl_2k.jpg"
    },
    {
      "mimeType": "image/jpeg",
      "name": "coastal_cliff_04_diff",
      "uri": "textures/coastal_cliff_04_diff_2k.jpg"
    },
    {
      "mimeType": "image/jpeg",
      "name": "coastal_cliff_04_rough",
      "uri": "textures/coastal_cliff_04_arm_2k.jpg"
    }
  ],
  "accessors": [
    {
      "bufferView": 0,
      "componentType": 5126,
      "count": 789032,
      "max": [
        39.346824645996094,
        10.351794242858887,
        15.209741592407227
      ],
      "min": [
        -47.42515563964844,
        -0.647914469242096,
        -9.037689208984375
      ],
      "type": "VEC3"
    },
    {
      "bufferView": 1,
      "componentType": 5126,
      "count": 789032,
      "type": "VEC2"
    },
    {
      "bufferView": 2,
      "componentType": 5126,
      "count": 789032,
      "type": "VEC3"
    },
    {
      "bufferView": 3,
      "componentType": 5125,
      "count": 4613778,
      "type": "SCALAR"
    }
  ],
  "bufferViews": [
    {
      "buffer": 0,
      "byteLength": 9468384,
      "byteOffset": 0,
      "target": 34962
    },
    {
      "buffer": 0,
      "byteLength": 6312256,
      "byteOffset": 9468384,
      "target": 34962
    },
    {
      "buffer": 0,
      "byteLength": 9468384,
      "byteOffset": 15780640,
      "target": 34962
    },
    {
      "buffer": 0,
      "byteLength": 18455112,
      "byteOffset": 25249024,
      "target": 34963
    }
  ],
  "samplers": [
    {
      "magFilter": 9729,
      "minFilter": 9987
    }
  ],
  "buffers": [
    {
      "byteLength": 43704136,
      "uri": "coastal_cliff_04.bin"
    }
  ]
}